<svg xmlns="http://www.w3.org/2000/svg" xmlns:xlink="http://www.w3.org/1999/xlink" width="0" height="0">
	<defs>
		<symbol viewBox="0 0 24 24" id="24-home">
			<!-- Icon from Lucide by Lucide Contributors - https://github.com/lucide-icons/lucide/blob/main/LICENSE -->
			<g fill="none" stroke="currentColor" stroke-linecap="round" stroke-linejoin="round" stroke-width="2">
				<path d="M15 21v-8a1 1 0 0 0-1-1h-4a1 1 0 0 0-1 1v8"></path>
				<path
					d="M3 10a2 2 0 0 1 .709-1.528l7-5.999a2 2 0 0 1 2.582 0l7 5.999A2 2 0 0 1 21 10v9a2 2 0 0 1-2 2H5a2 2 0 0 1-2-2z"
				></path>
			</g>
		</symbol>
		<symbol viewBox="0 0 24 24" id="24-todo">
			<!-- Icon from Lucide by Lucide Contributors - https://github.com/lucide-icons/lucide/blob/main/LICENSE -->
			<g fill="none" stroke="currentColor" stroke-linecap="round" stroke-linejoin="round" stroke-width="2">
				<rect width="6" height="6" x="3" y="5" rx="1"></rect>
				<path d="m3 17l2 2l4-4m4-9h8m-8 6h8m-8 6h8"></path>
			</g>
		</symbol>
		<symbol viewBox="0 0 24 24" id="24-shell">
			<!-- Icon from Lucide by Lucide Contributors - https://github.com/lucide-icons/lucide/blob/main/LICENSE -->
			<path
				fill="none"
				stroke="currentColor"
				stroke-linecap="round"
				stroke-linejoin="round"
				stroke-width="2"
				d="M14 11a2 2 0 1 1-4 0a4 4 0 0 1 8 0a6 6 0 0 1-12 0a8 8 0 0 1 16 0a10 10 0 1 1-20 0a11.93 11.93 0 0 1 2.42-7.22a2 2 0 1 1 3.16 2.44"
			></path>
		</symbol>
		<symbol viewBox="0 0 24 24" id="24-hammer">
			<!-- Icon from Lucide by Lucide Contributors - https://github.com/lucide-icons/lucide/blob/main/LICENSE -->
			<g fill="none" stroke="currentColor" stroke-linecap="round" stroke-linejoin="round" stroke-width="2">
				<path d="m15 12l-8.373 8.373a1 1 0 1 1-3-3L12 9m6 6l4-4"></path>
				<path
					d="m21.5 11.5l-1.914-1.914A2 2 0 0 1 19 8.172V7l-2.26-2.26a6 6 0 0 0-4.202-1.756L9 2.96l.92.82A6.18 6.18 0 0 1 12 8.4V10l2 2h1.172a2 2 0 0 1 1.414.586L18.5 14.5"
				></path>
			</g>
		</symbol>
	</defs>
</svg>
