<svg xmlns="http://www.w3.org/2000/svg" xmlns:xlink="http://www.w3.org/1999/xlink" width="0" height="0">
	<defs>
		<symbol viewBox="0 0 24 24" id="24-home">
			<!-- Icon from Lucide by Lucide Contributors - https://github.com/lucide-icons/lucide/blob/main/LICENSE -->
			<g fill="none" stroke="currentColor" stroke-linecap="round" stroke-linejoin="round" stroke-width="2">
				<path d="M15 21v-8a1 1 0 0 0-1-1h-4a1 1 0 0 0-1 1v8"></path>
				<path
					d="M3 10a2 2 0 0 1 .709-1.528l7-5.999a2 2 0 0 1 2.582 0l7 5.999A2 2 0 0 1 21 10v9a2 2 0 0 1-2 2H5a2 2 0 0 1-2-2z"
				></path>
			</g>
		</symbol>
		<symbol viewBox="0 0 24 24" id="24-todo">
			<!-- Icon from Lucide by Lucide Contributors - https://github.com/lucide-icons/lucide/blob/main/LICENSE -->
			<g fill="none" stroke="currentColor" stroke-linecap="round" stroke-linejoin="round" stroke-width="2">
				<rect width="6" height="6" x="3" y="5" rx="1"></rect>
				<path d="m3 17l2 2l4-4m4-9h8m-8 6h8m-8 6h8"></path>
			</g>
		</symbol>
		<symbol viewBox="0 0 24 24" id="24-shell">
			<!-- Icon from Lucide by Lucide Contributors - https://github.com/lucide-icons/lucide/blob/main/LICENSE -->
			<path
				fill="none"
				stroke="currentColor"
				stroke-linecap="round"
				stroke-linejoin="round"
				stroke-width="2"
				d="M14 11a2 2 0 1 1-4 0a4 4 0 0 1 8 0a6 6 0 0 1-12 0a8 8 0 0 1 16 0a10 10 0 1 1-20 0a11.93 11.93 0 0 1 2.42-7.22a2 2 0 1 1 3.16 2.44"
			></path>
		</symbol>
		<symbol viewBox="0 0 24 24" id="24-hammer">
			<!-- Icon from Lucide by Lucide Contributors - https://github.com/lucide-icons/lucide/blob/main/LICENSE -->
			<g fill="none" stroke="currentColor" stroke-linecap="round" stroke-linejoin="round" stroke-width="2">
				<path d="m15 12l-8.373 8.373a1 1 0 1 1-3-3L12 9m6 6l4-4"></path>
				<path
					d="m21.5 11.5l-1.914-1.914A2 2 0 0 1 19 8.172V7l-2.26-2.26a6 6 0 0 0-4.202-1.756L9 2.96l.92.82A6.18 6.18 0 0 1 12 8.4V10l2 2h1.172a2 2 0 0 1 1.414.586L18.5 14.5"
				></path>
			</g>
		</symbol>
		<symbol viewBox="0 0 24 24" id="24-send">
			<!-- Icon from Lucide by Lucide Contributors - https://github.com/lucide-icons/lucide/blob/main/LICENSE -->
			<path
				fill="none"
				stroke="currentColor"
				stroke-linecap="round"
				stroke-linejoin="round"
				stroke-width="2"
				d="M14.536 21.686a.5.5 0 0 0 .937-.024l6.5-19a.496.496 0 0 0-.635-.635l-19 6.5a.5.5 0 0 0-.024.937l7.93 3.18a2 2 0 0 1 1.112 1.11zm7.318-19.539l-10.94 10.939"
			></path>
		</symbol>
		<symbol viewBox="0 0 24 24" id="24-unplug">
			<!-- Icon from Lucide by Lucide Contributors - https://github.com/lucide-icons/lucide/blob/main/LICENSE -->
			<path
				fill="none"
				stroke="currentColor"
				stroke-linecap="round"
				stroke-linejoin="round"
				stroke-width="2"
				d="m19 5l3-3M2 22l3-3m1.3 1.3a2.4 2.4 0 0 0 3.4 0L12 18l-6-6l-2.3 2.3a2.4 2.4 0 0 0 0 3.4Zm1.2-6.8L10 11m.5 5.5L13 14m-1-8l6 6l2.3-2.3a2.4 2.4 0 0 0 0-3.4l-2.6-2.6a2.4 2.4 0 0 0-3.4 0Z"
			></path>
		</symbol>
		<symbol viewBox="0 0 24 24" id="24-sync">
			<!-- Icon from Lucide by Lucide Contributors - https://github.com/lucide-icons/lucide/blob/main/LICENSE -->
			<g fill="none" stroke="currentColor" stroke-linecap="round" stroke-linejoin="round" stroke-width="2">
				<path d="M3 2v6h6"></path>
				<path d="M21 12A9 9 0 0 0 6 5.3L3 8m18 14v-6h-6"></path>
				<path d="M3 12a9 9 0 0 0 15 6.7l3-2.7"></path>
				<circle cx="12" cy="12" r="1"></circle>
			</g>
		</symbol>
		<symbol viewBox="0 0 24 24" id="24-chevron-right">
			<!-- Icon from Lucide by Lucide Contributors - https://github.com/lucide-icons/lucide/blob/main/LICENSE -->
			<path
				fill="none"
				stroke="currentColor"
				stroke-linecap="round"
				stroke-linejoin="round"
				stroke-width="2"
				d="m9 18l6-6l-6-6"
			></path>
		</symbol>
		<symbol viewBox="0 0 24 24" id="24-message-warning">
			<!-- Icon from Lucide by Lucide Contributors - https://github.com/lucide-icons/lucide/blob/main/LICENSE -->
			<path
				fill="none"
				stroke="currentColor"
				stroke-linecap="round"
				stroke-linejoin="round"
				stroke-width="2"
				d="M7.9 20A9 9 0 1 0 4 16.1L2 22ZM12 8v4m0 4h.01"
			></path>
		</symbol>
	</defs>
</svg>
